PathFileType	4	(X/Y/Z)	walk-thru1-3-TP.trc
DataRate	CameraRate	NumFrames	NumMarkers	Units	OrigDataRate	OrigDataStartFrame	OrigNumFrames
120.00	120.00	       4	60	mm	120.00	150	       597
Frame#	Time	Top.Head			Front.Head			Rear.Head			Jaw			C7			R.Clavicle			L.Clavicle			R.Shoulder			L.Shoulder			R.Scapula			L.Scapula			R.Scap.Inf			R.Biceps.Lateral			R.Elbow			R.Elbow.Medial			R.Forearm			R.Ulna			R.Radius			R.Wrist			R.Thumb.M1			R.Thumb.M2			R.Thumb.M3			R.Finger3.M1			R.Finger3.M2			R.Finger3.M3			L.Biceps.Lateral			L.Elbow			L.Elbow.Medial			L.Forearm			L.Ulna			L.Radius			L.Wrist			L.Thumb.M1			L.Thumb.M2			L.Thumb.M3			L.Finger3.M1			L.Finger3.M2			L.Finger3.M3			V.Sacral			R.ASIS			L.ASIS			R.Thigh			R.Thigh.Front			R.Knee			R.Knee.Medial			R.Shank			R.Ankle			R.Ankle.Medial			R.Heel			R.Toe			R.MedFoot			L.Thigh			L.Knee			L.Knee.Medial			L.Shank			L.Ankle			L.Ankle.Medial			L.Heel			L.Toe			L.MedFoot			V_mid_ASIS			V_R_Knee_JC			V_L_Knee_JC			V_R_Elbow_JC			V_L_Elbow_JC			V_R_Ankle_JC			V_L_Ankle_JC			V_R_Wrist_JC			V_L_Wrist_JC			V_R_ScaTrpz_1stMC_JC			V_R_1stMC_1stPP_JC			V_R_1stPP_1stDP_JC			V_R_LunCap_3rdMC_JC			V_R_3rdMC_3rdPP_JC			V_R_3rdPP_3rdMP_JC			V_R_3rdMP_3rdDP_JC			V_L_ScaTrpz_1stMC_JC			V_L_1stMC_1stPP_JC			V_L_1stPP_1stDP_JC			V_L_LunCap_3rdMC_JC			V_L_3rdMC_3rdPP_JC			V_L_3rdPP_3rdMP_JC			V_L_3rdMP_3rdPP_JC			V_ROOT_JC			V_R_Hip_JC			V_L_Hip_JC			V_R_GlenHum_JC			V_L_GlenHum_JC			V_ForeHead_Ctr			V_Vertex			V_Sagit_Lambdoid_Suture			V_R_FrontoTemp			V_L_FrontoTemporal			V_R_ParietalOccip			V_L_ParietalOcciptal			V_R_Temporal			V_L_Temporal			V_mid_FrontRearHead			V_mid_RLGlenHumCtrs			V_C7_vert			V_C1_vert			V_Mid_Hip			
		X1	Y1	Z1	X2	Y2	Z2	X3	Y3	Z3	X4	Y4	Z4	X5	Y5	Z5	X6	Y6	Z6	X7	Y7	Z7	X8	Y8	Z8	X9	Y9	Z9	X10	Y10	Z10	X11	Y11	Z11	X12	Y12	Z12	X13	Y13	Z13	X14	Y14	Z14	X15	Y15	Z15	X16	Y16	Z16	X17	Y17	Z17	X18	Y18	Z18	X19	Y19	Z19	X20	Y20	Z20	X21	Y21	Z21	X22	Y22	Z22	X23	Y23	Z23	X24	Y24	Z24	X25	Y25	Z25	X26	Y26	Z26	X27	Y27	Z27	X28	Y28	Z28	X29	Y29	Z29	X30	Y30	Z30	X31	Y31	Z31	X32	Y32	Z32	X33	Y33	Z33	X34	Y34	Z34	X35	Y35	Z35	X36	Y36	Z36	X37	Y37	Z37	X38	Y38	Z38	X39	Y39	Z39	X40	Y40	Z40	X41	Y41	Z41	X42	Y42	Z42	X43	Y43	Z43	X44	Y44	Z44	X45	Y45	Z45	X46	Y46	Z46	X47	Y47	Z47	X48	Y48	Z48	X49	Y49	Z49	X50	Y50	Z50	X51	Y51	Z51	X52	Y52	Z52	X53	Y53	Z53	X54	Y54	Z54	X55	Y55	Z55	X56	Y56	Z56	X57	Y57	Z57	X58	Y58	Z58	X59	Y59	Z59	X60	Y60	Z60	

150	1.242	1001.52417	-102.19494	1773.39990	898.71906	-86.24419	1654.41479	1131.60168	-110.41541	1696.48596	985.16089	-92.00356	1476.64954	1223.55334	-102.90379	1575.12866	1127.87134	22.63657	1498.38696	1111.84290	-219.01033	1474.64819	1182.67188	127.70228	1493.32410	1153.58301	-324.62845	1470.34448	1290.91846	-5.22275	1487.81787	1286.03857	-198.37927	1470.43591	1322.20959	-0.40077	1396.53772	1221.81946	165.13785	1356.45837	1286.51855	204.80821	1175.93542	1282.31897	106.97812	1161.36462	1189.82397	202.59930	1110.92834	1245.10278	216.41829	975.70734	1135.24023	203.75903	945.05219	1129.86389	249.42108	916.28314	1120.69580	196.19141	899.75732	1128.01355	165.57121	853.70740	1138.22961	162.88339	802.30579	1119.58582	260.28534	832.28912	1164.35034	222.85773	773.67548	1195.94653	177.00177	805.06067	1208.46350	-354.91235	1326.15540	1272.86621	-369.45239	1157.89380	1289.97961	-274.43002	1133.71606	1187.64673	-363.91068	1076.66345	1246.34338	-389.09851	971.66492	1150.89685	-364.87552	915.94153	1168.69507	-408.14368	883.51544	1126.55103	-362.43768	861.78394	1108.23560	-338.74860	818.41010	1098.78809	-339.75137	769.37238	1141.41370	-419.19098	786.25751	1141.27808	-387.78235	728.41199	1151.81006	-330.19824	728.00726	1340.28918	-86.12881	1120.10718	1152.70227	114.52538	1068.45239	1141.37720	-237.03575	1061.67517	1119.89136	126.50274	694.84326	1025.91174	62.00243	585.57062	1084.01819	119.87270	532.15942	1082.29443	0.81027	523.05878	1175.45044	89.04652	328.30515	1370.96863	124.09908	178.92630	1335.64514	23.01198	179.53455	1436.17981	67.21691	170.55653	1249.85535	92.90781	61.77147	1271.19995	60.17222	114.53568	1145.21240	-232.14490	672.98712	1130.35803	-205.68556	531.67371	1139.48376	-98.11647	515.02997	1136.18616	-159.29240	321.43533	1250.16028	-167.66953	79.79753	1200.51672	-78.37563	109.79115	1288.61584	-96.56377	47.64106	1069.31616	-167.00494	40.58725	1130.72449	-120.40909	83.81681																																																																																																																															
151	1.250	998.68060	-102.20397	1773.59631	894.69910	-85.55570	1655.21130	1128.83142	-110.33183	1696.80103	981.10223	-91.91414	1477.71680	1218.10474	-105.34108	1573.14771	1124.56262	22.77666	1498.82227	1107.25488	-220.12190	1475.38342	1179.98279	126.51765	1493.64502	1148.96960	-325.88257	1470.55835	1286.89343	-6.13139	1487.61182	1280.95850	-200.01204	1471.36548	1317.60596	-1.70207	1396.97803	1218.77368	164.85826	1356.62134	1282.68408	202.94582	1176.59778	1276.63831	105.44144	1161.70483	1186.74731	204.26544	1111.46387	1244.27466	216.04437	975.53009	1133.54285	203.67421	945.93994	1128.90674	249.86075	915.71338	1118.14697	194.27873	900.43286	1125.23511	164.18105	856.16119	1138.51416	155.40805	807.94574	1118.89648	255.93857	830.74359	1161.88562	215.95064	776.30847	1192.57800	171.88148	806.63367	1205.40027	-356.60547	1325.88293	1267.19641	-370.31430	1158.21411	1284.34985	-277.41815	1133.77966	1182.24097	-364.93445	1076.77185	1239.53857	-391.07816	971.97760	1143.82019	-366.32294	917.76953	1161.71191	-408.75366	883.93762	1118.24854	-365.61151	863.22742	1102.02039	-340.75778	818.78003	1091.89771	-343.18787	769.72388	1133.53076	-420.26364	787.00354	1134.79956	-390.51526	729.42108	1144.33167	-331.94470	729.01117	1335.10730	-86.85962	1120.79419	1148.98560	113.64272	1068.37598	1137.26404	-238.16216	1061.85181	1113.28357	127.95652	696.08453	1017.71893	60.63600	587.69843	1075.28479	119.72556	533.43213	1073.85938	1.20788	524.51715	1164.10693	88.27828	327.98767	1356.12683	124.53993	176.71828	1321.72839	23.06974	178.27864	1422.09387	68.16502	166.64783	1233.44470	91.92352	61.28306	1256.54663	60.04202	113.53690	1142.38135	-233.20535	672.64801	1128.90356	-205.78206	530.86969	1141.18774	-98.53053	514.46545	1135.95850	-159.40414	320.78574	1250.04041	-167.76282	79.83756	1200.51672	-78.37563	109.79115	1287.33301	-96.93114	49.03893	1068.88147	-167.11559	40.77624	1130.70947	-120.48199	83.78752																																																																																																																															
152	1.258	993.27637	-102.30989	1773.74023	891.20349	-85.45668	1655.90759	1124.46411	-112.10567	1697.79102	975.93262	-93.79189	1478.39075	1214.44763	-104.93326	1572.98145	1120.18005	22.60100	1499.59937	1102.83533	-220.60760	1474.84558	1175.61145	125.73711	1494.52930	1144.20874	-326.99588	1472.03943	1283.17065	-7.48541	1487.98328	1276.95068	-200.37527	1471.76477	1313.72546	-2.82876	1396.73096	1215.33496	164.94714	1356.79993	1279.66223	202.39793	1176.97803	1273.94092	104.98543	1163.19397	1184.57642	203.42636	1113.16882	1241.83447	215.24255	975.79010	1131.55029	203.29076	946.27051	1127.54736	249.90300	916.03369	1116.22522	194.26871	901.52728	1120.92004	161.57738	859.10114	1128.96643	154.20087	807.63611	1117.63257	253.30008	830.63983	1158.00281	210.53870	777.82373	1191.84656	167.47449	809.46613	1199.47766	-356.94846	1325.14856	1261.67810	-371.24155	1158.46106	1279.05481	-277.62686	1134.27197	1177.23230	-366.30432	1078.02954	1233.89075	-393.43866	972.65332	1138.09839	-368.88394	918.85242	1155.46338	-410.99512	884.65686	1112.53040	-366.19577	864.31604	1095.18469	-341.65668	819.04535	1084.97534	-345.43326	769.68402	1127.61682	-423.01114	787.49988	1125.90149	-392.77380	728.92944	1137.06555	-334.57974	728.74530	1330.05334	-87.93781	1120.10547	1143.78821	113.34336	1069.21472	1131.93787	-238.33754	1061.15356	1105.81323	126.11575	696.63794	1009.52148	59.51796	590.23828	1066.24268	119.15867	535.41809	1066.20911	0.95812	525.86780	1152.25989	88.27573	328.56018	1341.66675	124.75581	173.10402	1306.73303	23.00488	175.62703	1407.29065	68.50243	162.46790	1216.31177	91.94104	61.02469	1240.03223	59.73835	113.45338	1140.77710	-232.96432	672.85272	1128.09741	-206.14835	530.38544	1135.83911	-98.46327	514.17780	1134.60645	-160.36635	320.59863	1250.07373	-167.51012	79.89942	1200.74146	-78.67416	109.85339	1288.68518	-96.47036	47.67610	1069.10681	-167.35902	40.77502	1130.72449	-120.40909	83.81681																																																																																																																															
153	1.267	989.63208	-103.53437	1774.17090	886.56915	-85.55353	1656.21777	1119.62280	-112.91618	1697.88892	971.83124	-93.20405	1478.73621	1209.97437	-106.44327	1572.23621	1115.70264	21.99531	1499.29700	1097.89233	-220.52684	1474.77686	1171.39941	124.79794	1494.77197	1138.10266	-327.82990	1472.04565	1278.38989	-8.59342	1487.92065	1271.69287	-201.06554	1471.73047	1309.31604	-3.39332	1397.36841	1212.24011	162.79532	1357.08972	1278.33594	201.04124	1178.21338	1270.74097	103.70664	1163.31995	1182.34009	202.87958	1113.43457	1240.49268	213.26289	976.70178	1128.82837	204.33725	947.03760	1124.70776	248.35242	915.61542	1114.63391	193.96693	902.97351	1116.21411	159.87599	861.03412	1122.60535	152.12527	810.07910	1114.66394	250.59402	830.25049	1154.69495	204.65654	778.27039	1178.55847	159.89177	811.52087	1194.02063	-356.77289	1326.05322	1255.36401	-372.44455	1157.55762	1274.70520	-279.46817	1133.96936	1170.98315	-369.46317	1078.38806	1227.66589	-393.99323	971.44647	1131.37964	-370.70529	918.93152	1149.94714	-413.33322	885.62256	1105.53833	-368.85526	865.14343	1087.86438	-344.11453	819.57465	1077.32959	-348.25146	770.06152	1120.27258	-426.28922	788.16870	1119.52356	-394.92685	729.53815	1129.72192	-336.44958	729.31519	1325.59827	-88.81741	1120.79639	1140.90515	112.91525	1069.87952	1128.02710	-238.38689	1061.66223	1099.67920	125.61157	698.64227	1002.21368	59.47937	592.46997	1057.14001	118.21084	537.81958	1057.40625	0.93032	527.32001	1139.84094	87.23936	329.17514	1325.65625	125.34300	169.96223	1292.87976	23.69764	173.12308	1392.40735	68.20413	157.73347	1198.62341	92.34559	60.63988	1223.62085	59.94349	112.49752	1138.35815	-233.05559	672.51898	1126.96545	-206.80290	530.19952	1134.60815	-99.11343	513.97003	1134.16443	-160.18990	319.87119	1250.14734	-167.43327	79.98529	1200.39099	-78.31944	109.84373	1288.09631	-96.21657	47.74416	1069.03674	-167.25873	40.60627	1130.63916	-120.49028	83.79092																																																																																																																															
